Coordinates
version=1
nRows=14
nColumns=33
inDegrees=yes

Units are S.I. units (second, meters, Newtons, ...)
Angles are in degrees.

endheader
time	ground_thorax_rot_x	ground_thorax_rot_y	ground_thorax_rot_z	ground_thorax_tx	ground_thorax_ty	ground_thorax_tz	clav_prot_r	clav_elev_r	scapula_abduction_r	scapula_elevation_r	scapula_upward_rot_r	scapula_winging_r	shoulder_elv_r	plane_of_elev_r	axial_rot_r	elbow_flexion_r	pro_sup_r	wrist_flex_r	wrist_dev_r	clav_prot_l	clav_elev_l	scapula_abduction_l	scapula_elevation_l	scapula_upward_rot_l	scapula_winging_l	shoulder_elv_l	plane_of_elev_l	axial_rot_l	elbow_flexion_l	pro_sup_l	wrist_flex_l	wrist_dev_l	
6.9000	24.465399	33.979652	47.271207	-49.383226	778.351521	7.990923	14.103602	36.128036	32.911152	45.000000	-45.000000	-2596.256147	-1553.729799	145.971373	180.000000	2884.877657	56.423403	21.448750	13.335865	7.201117	-45.000000	-36.430985	45.000000	-45.000000	2251.458873	-1372.298290	17.370047	-62.558584	366.920185	25.630289	9.552438	-18.548691	
6.9100	24.503877	33.972604	47.217599	-49.707920	778.258284	7.974920	14.135987	36.149853	32.963751	45.000000	-45.000000	-2596.287036	-1553.729872	145.949271	180.000000	2884.868868	56.424604	21.465681	13.343787	7.071124	-45.000000	-36.345632	45.000000	-45.000000	2251.482824	-1372.268013	17.384375	-62.573138	366.903726	25.662272	9.567052	-18.569905	
6.9200	24.554311	33.958705	47.166903	-50.047748	778.158856	7.957880	14.157119	36.178027	33.036947	45.000000	-45.000000	-2596.319138	-1553.735663	145.934969	180.000000	2884.840308	56.421235	21.526825	13.364930	6.929698	-45.000000	-36.223256	45.000000	-45.000000	2251.510157	-1372.238549	17.402311	-62.591313	366.872533	25.695623	9.609130	-18.614404	
6.9300	24.585304	33.956926	47.128066	-50.419919	778.044624	7.938620	14.165229	36.194429	33.080164	45.000000	-45.000000	-2596.351892	-1553.729735	145.925455	180.000000	2884.828124	56.406437	21.559346	13.381450	6.857994	-45.000000	-36.156608	45.000000	-45.000000	2251.540710	-1372.214340	17.416374	-62.581667	366.852723	25.720802	9.629988	-18.636082	
6.9400	24.611013	33.959127	47.088153	-50.826900	777.916712	7.916786	14.169997	36.205229	33.100609	45.000000	-45.000000	-2596.383276	-1553.714623	145.911888	180.000000	2884.822280	56.384972	21.563135	13.392320	6.815852	-45.000000	-36.126320	45.000000	-45.000000	2251.570625	-1372.192500	17.428734	-62.556470	366.840153	25.740241	9.637505	-18.645862	
6.9500	24.635959	33.959118	47.054485	-51.273413	777.775329	7.891833	14.160854	36.212466	33.122615	45.000000	-45.000000	-2596.416870	-1553.697788	145.909690	180.000000	2884.818564	56.356473	21.586990	13.411095	6.806583	-45.000000	-36.102295	45.000000	-45.000000	2251.606501	-1372.172264	17.442039	-62.514625	366.827226	25.754832	9.647737	-18.655368	
6.9600	24.664521	33.956025	47.009017	-51.760349	777.623315	7.863434	14.157466	36.217075	33.125432	45.000000	-45.000000	-2596.448730	-1553.671122	145.897210	180.000000	2884.822916	56.328723	21.576618	13.420096	6.802763	-45.000000	-36.106844	45.000000	-45.000000	2251.639907	-1372.151841	17.455013	-62.461208	366.823258	25.764089	9.644032	-18.656043	
6.9700	24.703999	33.940644	46.960627	-52.286999	777.464509	7.831413	14.144986	36.222401	33.145665	45.000000	-45.000000	-2596.484833	-1553.647778	145.895666	180.000000	2884.828640	56.302679	21.610363	13.441451	6.804109	-45.000000	-36.091802	45.000000	-45.000000	2251.678345	-1372.131360	17.472473	-62.397428	366.818967	25.770044	9.652650	-18.667167	
6.9800	24.750266	33.917182	46.892535	-52.853071	777.302361	7.795688	14.145148	36.227042	33.144520	45.000000	-45.000000	-2596.518466	-1553.614294	145.876468	180.000000	2884.848035	56.285899	21.601204	13.446685	6.796911	-45.000000	-36.102371	45.000000	-45.000000	2251.711425	-1372.109465	17.492272	-62.321876	366.826807	25.770331	9.646182	-18.671096	
6.9900	24.806884	33.879211	46.819899	-53.458704	777.139956	7.756335	14.134458	36.231309	33.164162	45.000000	-45.000000	-2596.557357	-1553.585932	145.870298	180.000000	2884.872540	56.275787	21.647932	13.467454	6.797857	-45.000000	-36.091781	45.000000	-45.000000	2251.748957	-1372.085368	17.520676	-62.230966	366.835294	25.766345	9.653320	-18.685423	
7.0000	24.869731	33.832727	46.725199	-54.104557	776.980110	7.713566	14.137252	36.235476	33.160123	45.000000	-45.000000	-2596.592972	-1553.546886	145.844150	180.000000	2884.911770	56.277906	21.643536	13.467076	6.788458	-45.000000	-36.106055	45.000000	-45.000000	2251.779869	-1372.058755	17.555399	-62.122882	366.855014	25.755476	9.645732	-18.693686	
7.0100	24.943651	33.772755	46.623743	-54.791870	776.825547	7.667686	14.128328	36.238694	33.181743	45.000000	-45.000000	-2596.634757	-1553.512564	145.834208	180.000000	2884.955961	56.287042	21.703940	13.486318	6.787981	-45.000000	-36.099554	45.000000	-45.000000	2251.814422	-1372.029665	17.600177	-61.994395	366.875505	25.739666	9.652413	-18.711704	
7.0200	25.025059	33.705057	46.501622	-55.522633	776.679015	7.619009	14.130952	36.241762	33.186157	45.000000	-45.000000	-2596.674315	-1553.467137	145.808762	180.000000	2885.014700	56.306460	21.712306	13.482356	6.778538	-45.000000	-36.114712	45.000000	-45.000000	2251.843233	-1372.000379	17.651371	-61.842309	366.905388	25.716467	9.645075	-18.724905	
7.0300	25.118654	33.623549	46.369873	-56.299228	776.543475	7.567788	14.122102	36.242739	33.217530	45.000000	-45.000000	-2596.721926	-1553.424455	145.796477	180.000000	2885.078111	56.330067	21.788712	13.500731	6.778311	-45.000000	-36.110677	45.000000	-45.000000	2251.876598	-1371.966448	17.715030	-61.665966	366.940122	25.688127	9.650787	-18.747766	
